<svg aria-hidden="true" style="width:0;height:0;position:absolute;overflow:hidden" xmlns="http://www.w3.org/2000/svg"><defs><symbol id="icon-shopping" viewBox="0 0 32 32"><path d="M24.861 19.75H12.038a.938.938 0 0 1-.913-.723l-.001-.006-2.159-9.405a.938.938 0 0 1 .914-1.148h17.144a.938.938 0 0 1 .913 1.154l.001-.006-2.163 9.405a.938.938 0 0 1-.914.729zm-12.074-1.875h11.328l1.729-7.53H11.057zM13.875 28.125c-1.984 0-3.592-1.608-3.592-3.593a3.592 3.592 0 1 1 7.185 0 3.597 3.597 0 0 1-3.592 3.593zm0-5.309a1.717 1.717 0 1 0 0 3.436c.949 0 1.717-.769 1.717-1.718v-.001a1.719 1.719 0 0 0-1.717-1.717zM23.026 28.125a3.593 3.593 0 1 1 3.593-3.593 3.597 3.597 0 0 1-3.592 3.593zm0-5.309a1.718 1.718 0 1 0 1.718 1.718v-.001a1.719 1.719 0 0 0-1.717-1.717z"/><path d="M9.88 10.343a.938.938 0 0 1-.887-.635l-.002-.007-1.607-4.827H4.419a.938.938 0 0 1 0-1.876h3.644c.412 0 .761.266.887.635l.002.007 1.821 5.468a.938.938 0 0 1-.889 1.234z"/></symbol><symbol id="icon-food" viewBox="0 0 46 32"><path d="M9.598 21.296a.714.714 0 0 0 1.174.81l.014-.021a13.388 13.388 0 0 1 11.172-6.008.713.713 0 1 0 0-1.426 14.809 14.809 0 0 0-12.36 6.646z"/><path d="M44.926 30.339h-4.279v-.861a16.823 16.823 0 0 0-5.21-12.233.714.714 0 0 0-1.015 1.003l.026.025a15.411 15.411 0 0 1 4.772 11.205v.861H6.417v-.861c.009-8.579 6.962-15.531 15.54-15.54h1.723a15.612 15.612 0 0 1 3.926.499.713.713 0 1 0 .357-1.381 16.988 16.988 0 0 0-3.005-.493v-2.192a.713.713 0 0 0-.713-.713h-2.852a.713.713 0 0 0-.713.713v2.192c-8.843.677-15.677 8.044-15.689 16.914v.861H.712a.713.713 0 1 0 0 1.426h44.213a.713.713 0 1 0 0-1.426zM22.107 11.085h1.426v1.426h-1.426v-1.426z"/><path d="M30.189 9.118c.664.593 1.188 1.06 1.188 2.015s-.524 1.423-1.188 2.019a3.9 3.9 0 0 0-1.664 3.076.713.713 0 1 0 1.426 0c0-.955.524-1.423 1.188-2.015a3.9 3.9 0 0 0 1.664-3.08 3.904 3.904 0 0 0-1.664-3.079c-.664-.593-1.188-1.06-1.188-2.015s.524-1.421 1.188-2.014A3.897 3.897 0 0 0 32.803.947a.713.713 0 1 0-1.426 0c0 .953-.524 1.421-1.188 2.013a3.899 3.899 0 0 0-1.664 3.079 3.906 3.906 0 0 0 1.664 3.079zM34.468 9.118c.664.593 1.188 1.06 1.188 2.015s-.524 1.426-1.188 2.016a3.9 3.9 0 0 0-1.664 3.079.713.713 0 1 0 1.426 0c0-.955.524-1.423 1.188-2.015a3.9 3.9 0 0 0 1.664-3.08 3.904 3.904 0 0 0-1.664-3.079c-.664-.593-1.188-1.06-1.188-2.015s.524-1.421 1.188-2.014A3.897 3.897 0 0 0 37.082.947a.713.713 0 1 0-1.426 0c0 .953-.524 1.421-1.188 2.013a3.899 3.899 0 0 0-1.664 3.079 3.906 3.906 0 0 0 1.664 3.079z"/><path d="M38.746 9.118c.664.593 1.188 1.06 1.188 2.015s-.524 1.426-1.188 2.016a3.9 3.9 0 0 0-1.664 3.079.713.713 0 1 0 1.426 0c0-.955.524-1.423 1.188-2.015a3.9 3.9 0 0 0 1.664-3.08 3.904 3.904 0 0 0-1.664-3.079c-.664-.593-1.188-1.06-1.188-2.015s.524-1.421 1.188-2.014A3.897 3.897 0 0 0 41.36.947a.713.713 0 1 0-1.426 0c0 .953-.524 1.421-1.188 2.013a3.899 3.899 0 0 0-1.664 3.079 3.906 3.906 0 0 0 1.664 3.079z"/></symbol><symbol id="icon-phone" viewBox="0 0 32 32"><path d="M25.29 19.823c-.655-.682-1.445-1.047-2.283-1.047-.831 0-1.628.358-2.31 1.04l-2.134 2.127c-.176-.094-.351-.182-.52-.27-.243-.122-.473-.236-.669-.358-1.999-1.27-3.816-2.924-5.558-5.065-.844-1.067-1.412-1.965-1.824-2.877.554-.507 1.067-1.033 1.567-1.54.189-.189.378-.385.567-.574 1.418-1.418 1.418-3.255 0-4.674l-1.844-1.844a29.275 29.275 0 0 1-.628-.642 31.411 31.411 0 0 0-1.27-1.256c-.655-.648-1.439-.993-2.263-.993s-1.621.344-2.296.993l-.014.014-2.296 2.317A4.937 4.937 0 0 0 .049 8.315c-.162 1.972.419 3.809.865 5.011 1.094 2.951 2.729 5.687 5.167 8.618 2.958 3.532 6.517 6.322 10.583 8.287 1.553.736 3.627 1.607 5.943 1.756.142.007.29.014.425.014 1.56 0 2.87-.561 3.897-1.675.007-.014.02-.02.027-.034.351-.426.756-.811 1.182-1.223.29-.277.588-.567.878-.871.669-.696 1.02-1.506 1.02-2.337 0-.837-.358-1.641-1.04-2.317l-3.708-3.721zm2.418 7.112c-.007 0-.007.007 0 0-.263.284-.534.54-.824.824-.439.419-.885.858-1.303 1.351-.682.729-1.486 1.074-2.539 1.074-.101 0-.209 0-.311-.007-2.006-.128-3.87-.912-5.268-1.58-3.823-1.851-7.179-4.478-9.969-7.807-2.303-2.776-3.843-5.342-4.863-8.098-.628-1.682-.858-2.992-.756-4.228.068-.79.371-1.445.932-2.006L5.11 4.155c.331-.311.682-.48 1.027-.48.426 0 .77.257.986.473l.02.02c.412.385.804.783 1.216 1.209.209.216.425.432.642.655l1.844 1.844c.716.716.716 1.378 0 2.094-.196.196-.385.392-.581.581a35.386 35.386 0 0 1-1.695 1.648c-.014.014-.027.02-.034.034-.581.581-.473 1.148-.351 1.533l.02.061c.48 1.162 1.155 2.256 2.181 3.559l.007.007c1.864 2.296 3.829 4.086 5.997 5.457.277.176.561.317.831.452.243.122.473.236.669.358.027.014.054.034.081.047.23.115.446.169.669.169.561 0 .912-.351 1.026-.466l2.31-2.31c.23-.23.594-.506 1.02-.506.419 0 .763.263.973.493l.014.014 3.721 3.721c.696.689.696 1.398.007 2.114zM17.294 7.612c1.77.297 3.377 1.135 4.66 2.418s2.114 2.891 2.418 4.66a.905.905 0 0 0 .898.756c.054 0 .101-.007.155-.014a.913.913 0 0 0 .75-1.054c-.365-2.141-1.378-4.093-2.925-5.639s-3.498-2.56-5.639-2.924c-.5-.081-.966.25-1.054.743s.236.973.736 1.054zM31.963 14.116c-.601-3.525-2.263-6.734-4.815-9.287S21.387.615 17.861.014a.909.909 0 0 0-1.047.743c-.081.5.25.966.75 1.054 3.147.534 6.018 2.026 8.301 4.302a15.296 15.296 0 0 1 4.302 8.3.905.905 0 0 0 .898.756c.054 0 .101-.007.155-.014a.895.895 0 0 0 .743-1.04z"/></symbol><symbol id="icon-menu_burger" viewBox="0 0 55 32"><path fill="#ff7400" style="fill:var(--color1,#ff7400)" d="M2.889 0H52a2.888 2.888 0 1 1 0 5.778H2.889a2.89 2.89 0 0 1 0-5.778zM2.889 12.889H52a2.888 2.888 0 1 1 0 5.778H2.889a2.89 2.89 0 0 1 0-5.778zM2.889 25.778H52a2.888 2.888 0 1 1 0 5.778H2.889a2.89 2.89 0 0 1 0-5.778z"/></symbol><symbol id="icon-logo" viewBox="0 0 47 32"><path fill="none" stroke="#ff7400" style="stroke:var(--color1,#ff7400)" stroke-width="1.412" d="M.998 15.991 15.991.998l14.993 14.993-14.993 14.993L.998 15.991z"/><path fill="none" stroke="#ff7400" style="stroke:var(--color1,#ff7400)" stroke-width="1.412" d="M16.075 15.991 31.068.998l14.993 14.993-14.993 14.993-14.993-14.993z"/></symbol></defs></svg>